<svg xmlns="http://www.w3.org/2000/svg" style="display: none;">

    <symbol id="icon-angle-left-circled" viewBox="0 0 23 23">
        <title>angle left</title>
        <path fill-rule="evenodd" clip-rule="evenodd" d="M11.5,0C5.149,0,0,5.149,0,11.5C0,17.851,5.149,23,11.5,23S23,17.851,23,11.5 C23,5.149,17.851,0,11.5,0z M7.386,11.498l0.665-0.559l4.83-3.896l1.343,1.265l-4.237,3.174l4.235,3.12L12.881,16l-4.83-3.835 L7.386,11.498z"/>
    </symbol>

    <symbol id="icon-angle-right-circled" viewBox="0 0 23 23">
        <title>angle right</title>
        <path fill-rule="evenodd" clip-rule="evenodd" d="M11.5,0C17.851,0,23,5.149,23,11.5C23,17.851,17.851,23,11.5,23 C5.149,23,0,17.851,0,11.5C0,5.149,5.149,0,11.5,0z M14.949,12.165L10.119,16l-1.341-1.399l4.235-3.12L8.776,8.308l1.343-1.265 l4.83,3.896l0.665,0.559L14.949,12.165z"/>
    </symbol>

    <symbol id="icon-archive" viewBox="0 0 21 27">
        <title>archive</title>
        <path fill-rule="evenodd" clip-rule="evenodd" d="M0,27V0h10v2H8v2h2v2H8v2h2v2H8v2h2v2h2v-2h-2v-2h2V8h-2V6h2V4h-2V2h2V0h2.991 v6.009H21V27H0z M12,15H8v7h4V15z M11,20.937H9v-2h2V20.937z M16,0h0.245L21,4.755v0.182h-5V0z"/>
    </symbol>

    <symbol id="icon-book" viewBox="0 0 27 24">
        <title>book</title>
        <path d="M26,22c0,0,0,1.75,0,1.812C21.188,19.938,15,22,15,22S20.375,18.875,26,22z M6.5,0C10.312,0,13,2.25,13,2.25v19.625 c0,0-2.688-1.937-6.5-1.937c-3.812,0-6.5,1.937-6.5,1.937V2C0,2,2.688,0,6.5,0z M2,9h4V4H2V9z M11,16H2v1h9V16z M11,14H2v1h9V14z M11,12H2v1h9V12z M11,10H2v1h9V10z M7,5h4V4H7V5z M7,7h4V6H7V7z M7,9h4V8H7V9z M1,22c0,0,0,1.75,0,1.812C5.813,19.938,12,22,12,22 S6.625,18.875,1,22z M27,2.25v19.625c0,0-2.688-1.937-6.5-1.937S14,21.875,14,21.875V2c0,0,2.688-2,6.5-2S27,2.25,27,2.25z M25,16 h-9v1h9V16z M25,14h-9v1h9V14z M25,12h-9v1h9V12z M25,10h-9v1h9V10z M25,8h-9v1h9V8z M25,6h-9v1h9V6z M25,4h-9v1h9V4z"/>
    </symbol>

    <symbol id="icon-check-circled" viewBox="0 0 14 14">
        <title>check circled</title>
        <path fill-rule="evenodd" clip-rule="evenodd" d="M6.999,13.999C3.134,13.999,0,10.865,0,6.999C0,3.134,3.134,0,6.999,0 c3.866,0,6.999,3.134,6.999,6.999C13.999,10.865,10.865,13.999,6.999,13.999z M10.907,4.546L10.21,3.85 c-0.128-0.128-0.336-0.128-0.464,0L5.57,8.026L3.584,6.025c-0.128-0.128-0.336-0.128-0.464,0L2.423,6.721 c-0.128,0.128-0.128,0.336,0,0.464l2.209,2.225c0.003,0.003,0.004,0.007,0.007,0.011l0.478,0.478l0.115,0.116l0.001,0l0.103,0.103 c0.128,0.128,0.336,0.128,0.464,0l5.107-5.107C11.035,4.882,11.035,4.674,10.907,4.546z"/>
    </symbol>

    <symbol id="icon-check" viewBox="0 0 13 10">
        <title>check</title>
        <path fill-rule="evenodd" clip-rule="evenodd" d="M5.001,9.163c-0.185,0.185-0.484,0.185-0.669,0L4.184,9.015L4.183,9.016 L4.026,8.857L3.329,8.161C3.327,8.158,3.328,8.154,3.326,8.152l-3.187-3.21c-0.185-0.184-0.185-0.484,0-0.668L1.141,3.27 c0.185-0.185,0.484-0.185,0.669,0l2.86,2.881l6.013-6.013c0.184-0.184,0.484-0.184,0.668,0l1.003,1.003 c0.185,0.184,0.185,0.484,0,0.668L5.001,9.163z"/>
    </symbol>

    <symbol id="icon-clock" viewBox="0 0 19 20">
        <title>clock</title>
        <path fill-rule="evenodd" clip-rule="evenodd" d="M17.081,8.666c-0.927-2.568-3.187-4.54-5.998-5.167 c0.72-1.033,1.914-1.713,3.269-1.713c2.202,0,3.986,1.785,3.986,3.987C18.338,6.916,17.851,7.939,17.081,8.666z M9.415,1.936v2.507 c3.825,0.156,6.881,3.298,6.881,7.161c0,1.613-0.539,3.097-1.437,4.295l1.663,2.88l-1.381,0.797l-1.423-2.465 c-1.245,1.041-2.847,1.668-4.597,1.668c-1.74,0-3.335-0.62-4.577-1.65l-1.46,2.529l-1.381-0.797l1.697-2.939 c-0.909-1.202-1.455-2.695-1.455-4.319c0-3.837,3.015-6.962,6.804-7.157V1.936C8.36,1.797,8.079,1.436,8.079,1.002 C8.079,0.448,8.528,0,9.081,0c0.553,0,1.001,0.448,1.001,1.002C10.082,1.436,9.802,1.797,9.415,1.936z M3.538,11.604 c0,3.082,2.499,5.581,5.581,5.581c3.082,0,5.581-2.499,5.581-5.581c0-3.082-2.499-5.581-5.581-5.581 C6.037,6.022,3.538,8.521,3.538,11.604z M10.793,12.81H8.789c-0.369,0-0.668-0.299-0.668-0.668V9.471 c0-0.369,0.299-0.668,0.668-0.668s0.668,0.299,0.668,0.668v2.003h1.336c0.369,0,0.668,0.299,0.668,0.668 C11.46,12.511,11.161,12.81,10.793,12.81z M1.257,8.666C0.487,7.939,0,6.916,0,5.773c0-2.202,1.785-3.987,3.987-3.987 c1.355,0,2.548,0.679,3.268,1.713C4.445,4.126,2.184,6.098,1.257,8.666z"/>
    </symbol>

    <symbol id="icon-heart" viewBox="0 0 19 18">
        <title>heart</title>
        <path fill-rule="evenodd" clip-rule="evenodd" d="M9.226,2.821C7.2-1.541,0.043-1.114,0,6.364c-0.024,4.107,2.247,6.159,4.538,7.801 c2.222,1.592,4.476,2.767,4.701,3.695c0.193-0.908,2.626-2.112,4.682-3.707c2.249-1.743,4.562-3.727,4.538-7.834 C18.416-1.177,11.093-1.551,9.226,2.821z"/>
    </symbol>

    <symbol id="icon-imac" viewBox="0 0 27 24">
        <title>imac</title>
        <path fill-rule="evenodd" clip-rule="evenodd" d="M12,20.938V22.5L9,23v1h8.937v-0.937L15,22.5v-1.562H12z M25,0H2 C0.895,0,0,0.895,0,2v14c0,1.105,0.895,2,2,2h23c1.105,0,2-0.895,2-2V2C27,0.895,26.104,0,25,0z M13.375,16.5c-0.552,0-1-0.448-1-1 c0-0.552,0.448-1,1-1s1,0.448,1,1C14.375,16.052,13.927,16.5,13.375,16.5z M25,13H2V2h23V13z"/>
    </symbol>

    <symbol id="icon-info-circled" viewBox="0 0 13 13">
        <title>info circled</title>
        <path fill-rule="evenodd" clip-rule="evenodd" d="M6.626,3.476c0,0.443,0.335,0.744,0.748,0.744s0.748-0.301,0.748-0.744 c0-0.443-0.335-0.744-0.748-0.744S6.626,3.032,6.626,3.476z M4.963,6.058c0,0.088-0.016,0.306,0.002,0.438L5.617,5.71 c0.135-0.148,0.291-0.251,0.371-0.223c0.08,0.028,0.123,0.122,0.098,0.209l-1.08,3.577c-0.124,0.418,0.111,0.829,0.684,0.922 c0.84,0,1.339-0.568,1.829-1.304c0-0.088,0.029-0.32,0.011-0.451L6.878,9.226C6.743,9.374,6.575,9.477,6.495,9.45 C6.421,9.424,6.378,9.341,6.393,9.26L7.48,5.665c0.09-0.456-0.155-0.871-0.675-0.925C6.259,4.74,5.453,5.322,4.963,6.058z M6.5,0 C10.09,0,13,2.91,13,6.5c0,3.59-2.91,6.5-6.5,6.5C2.91,13,0,10.09,0,6.5C0,2.91,2.91,0,6.5,0z"/>
    </symbol>

    <symbol id="icon-mouse" viewBox="0 0 20 24">
        <title>mouse</title>
        <path fill-rule="evenodd" clip-rule="evenodd" d="M15.109,23.348h-3.902c-2.586,0-4.683-2.096-4.683-4.682v-7.024h4.732v1.561 c0,0.862,0.65,1.561,1.512,1.561h0.78c0.862,0,1.561-0.699,1.561-1.561v-1.561h4.732v7.024 C19.841,21.252,17.696,23.348,15.109,23.348z M15.109,10.081c0-0.862-0.699-1.561-1.561-1.561h0V3.887c0,0-1.024-0.049,1.512-0.049 c2.536,0,4.78,1.658,4.78,4.683c0,1.553,0,2.113,0,2.292h-4.732V10.081z M12.825,3.309c0-1.509-0.71-2.349-2.131-2.349 c-1.504,0-2.655,1.083-3.452,3.25L7.078,4.653C6.146,7.187,4.779,8.453,2.98,8.453c-0.726,0-1.405-0.277-2.035-0.829 C0.315,7.07,0,6.476,0,5.839c0-0.315,0.148-0.472,0.444-0.472c0.199,0,0.405,0.251,0.618,0.753C1.447,7.047,2.09,7.51,2.99,7.51 c0.682,0,1.239-0.22,1.674-0.661C5.098,6.408,5.592,5.56,6.145,4.305l0.357-0.792C7.55,1.171,8.962,0,10.737,0 c2.032,0,3.049,1.16,3.049,3.309h-0.014H12.825z M14.329,10.472v2.341c0,0.647-0.524,1.171-1.171,1.171 c-0.647,0-1.171-0.524-1.171-1.171v-2.341c0-0.647,0.524-1.171,1.171-1.171C13.805,9.301,14.329,9.825,14.329,10.472z M11.256,3.838 c2.536,0,1.561,0.049,1.561,0.049V8.52c-0.862,0-1.561,0.699-1.561,1.561v0.732H6.525c0-0.18,0-0.74,0-2.292 C6.525,5.496,8.72,3.838,11.256,3.838z"/>
    </symbol>

    <symbol id="icon-movie" viewBox="0 0 22 22">
        <title>movie</title>
        <path fill-rule="evenodd" clip-rule="evenodd" d="M0,0v22h22V0H0z M4,20H2v-2h2V20z M4,17H2v-2h2V17z M4,14H2v-2h2V14z M4,10H2V8h2 V10z M4,7H2V5h2V7z M4,4H2V2h2V4z M16,20H6v-8h10V20z M16,10H6V2h10V10z M20,20h-2v-2h2V20z M20,17h-2v-2h2V17z M20,14h-2v-2h2V14z M20,10h-2V8h2V10z M20,7h-2V5h2V7z M20,4h-2V2h2V4z"/>
    </symbol>

    <symbol id="icon-music" viewBox="0 0 23 25">
        <title>music</title>
        <path d="M22.927,0C17.565,0.106,11.353,1.036,5.991,2.788c-0.003-0.036,0.02,15.928,0.02,15.928 c-0.968-0.219-2.063-0.091-3.212,0.431c-2.132,0.97-3.294,2.929-2.596,4.377c0.698,1.448,2.993,1.836,5.124,0.867 c1.949-1.045,2.575-1.991,2.639-3.358L8.014,7.202c4.226-1.244,8.695-1.981,12.922-2.209v12.366 c-0.979-0.241-2.276-0.12-3.451,0.415c-2.132,0.97-3.294,2.929-2.596,4.377c0.698,1.448,2.992,1.836,5.125,0.867 c1.516-0.689,2.729-1.879,2.944-3.03C22.957,19.987,22.905-0.026,22.927,0z"/>
    </symbol>

    <symbol id="icon-notepad" viewBox="0 0 22 26">
        <title>notepad</title>
        <path fill-rule="evenodd" clip-rule="evenodd" d="M20,26H4V4h7v9.125l3.542-2.687L18,13.125V4h4v20C22,25.104,21.104,26,20,26z M14.542,9.125l-2.542,2V3h5v8.125L14.542,9.125z M1,2v1c0,0.552,0.448,1,1,1h1v22H2c-1.105,0-2-0.896-2-2V2c0-1.105,0.895-2,2-2h18 c0.738,0,1.376,0.405,1.722,1H2C1.448,1,1,1.448,1,2z"/>
    </symbol>

    <symbol id="icon-padlock" viewBox="0 0 15 20">
        <title>padlock</title>
        <path fill-rule="evenodd" clip-rule="evenodd" d="M13.235,9.099V4.963C13.235,2.222,10.186,0,7.445,0 c-2.741,0-5.79,2.222-5.79,4.963v1.654h3.18V5.79c0-1.67,0.921-2.792,2.611-2.792c1.664,0,2.611,1.15,2.611,2.792v3.309H1.654 C0.741,9.099,0,10.667,0,11.581v5.79c0,0.914,0.741,1.654,1.654,1.654h11.581c0.914,0,1.654-0.741,1.654-1.654v-6.618 C14.889,9.84,14.149,9.099,13.235,9.099z M8.595,16.545h-2.3l0.566-2.207c-0.576-0.218-0.988-0.771-0.988-1.423 c0-0.842,0.683-1.526,1.526-1.526c0.843,0,1.526,0.683,1.526,1.526c0,0.621-0.372,1.153-0.904,1.391L8.595,16.545z"/>
    </symbol>

    <symbol id="icon-plus" viewBox="0 0 24 24">
        <title>padlock</title>
        <path d="M9.07,14.273H0V9.141h9.07V0h5.133v9.141h9.07v5.133h-9.07v9.023H9.07V14.273z"/>
    </symbol>

    <symbol id="icon-times-circled" viewBox="0 0 14 14">
        <title>times circled</title>
        <path fill-rule="evenodd" clip-rule="evenodd" d="M7,14.001c-3.866,0-7-3.134-7-7s3.134-7,7-7c3.866,0,7,3.134,7,7 S10.867,14.001,7,14.001z M10.21,4.959c0.132-0.132,0.132-0.345,0-0.477L9.496,3.768c-0.132-0.132-0.345-0.132-0.476,0L6.994,5.793 	L4.969,3.768c-0.132-0.132-0.345-0.132-0.477,0L3.777,4.483c-0.132,0.132-0.132,0.345,0,0.477l2.025,2.025L3.777,9.01 	c-0.132,0.132-0.132,0.345,0,0.477l0.715,0.715c0.132,0.131,0.345,0.131,0.477,0l2.025-2.025l2.025,2.025 	c0.132,0.131,0.345,0.131,0.476,0l0.715-0.715c0.132-0.132,0.132-0.345,0-0.477L8.185,6.984L10.21,4.959z"/>
    </symbol>

    <symbol id="icon-times" viewBox="0 0 10 10">
        <title>times</title>
        <path fill-rule="evenodd" clip-rule="evenodd" d="M9.797,1.935c0.198-0.197,0.198-0.517,0-0.715L8.725,0.148 c-0.197-0.197-0.517-0.197-0.715,0L4.972,3.186L1.935,0.148c-0.197-0.197-0.517-0.197-0.715,0L0.148,1.22 c-0.197,0.197-0.197,0.517,0,0.715l3.038,3.038L0.148,8.01c-0.197,0.197-0.197,0.517,0,0.715L1.22,9.797 c0.197,0.197,0.517,0.197,0.715,0l3.038-3.038L8.01,9.797c0.197,0.197,0.517,0.197,0.715,0l1.072-1.072 c0.198-0.198,0.198-0.517,0-0.715L6.759,4.972L9.797,1.935z"/>
    </symbol>

</svg>
