<svg xmlns="http://www.w3.org/2000/svg" xmlns:xlink="http://www.w3.org/1999/xlink" style="width: 0; height: 0; overflow: hidden; position: fixed;">

    <defs>
        <linearGradient id="gradientDark" x1="0%" y1="0%" x2="0%" y2="100%">
            <stop offset="0" style="stop-color: rgb(0,0,0); stop-opacity: 0.5;"/>
            <stop offset="1" style="stop-color: rgb(0,0,0); stop-opacity: 0.3;"/>
        </linearGradient>
        <linearGradient id="gradientLight" x1="0%" y1="0%" x2="0%" y2="100%">
            <stop offset="0" style="stop-color: rgb(240, 240, 240); stop-opacity: 1;"/>
            <stop offset="1" style="stop-color: rgb(212, 212, 212); stop-opacity: 1;"/>
        </linearGradient>
        <filter id="shadowSmall">
            <feGaussianBlur in="SourceAlpha" stdDeviation="1"/>
            <feOffset dx="0" dy="1" result="offsetblur"/>
            <feFlood flood-color="rgba(0,0,0,0.75)"/>
            <feComposite in2="offsetblur" operator="in"/>
            <feMerge>
                <feMergeNode/>
                <feMergeNode in="SourceGraphic"/>
            </feMerge>
        </filter>
    </defs>

    <symbol id="icon-angle-left-circled" viewBox="0 0 25 28">
        <title>angle left</title>
        <path fill="url(#gradientLight)" stroke="rgb(166, 166, 166)" stroke-width="1px" filter="url(#shadowSmall)" fill-rule="evenodd" clip-rule="evenodd" d="M12.5,1C6.149,1,1,6.149,1,12.5C1,18.851,6.149,24,12.5,24S24,18.851,24,12.5 C24,6.149,18.851,1,12.5,1z M8.386,12.498l0.665-0.559l4.83-3.896l1.343,1.265l-4.237,3.174l4.235,3.12l-1.341,1.399l-4.83-3.835 L8.386,12.498z"/>
    </symbol>

    <symbol id="icon-angle-right-circled" viewBox="0 0 25 28">
        <title>angle right</title>
        <path fill="url(#gradientLight)" stroke="rgb(166, 166, 166)" stroke-width="1px" filter="url(#shadowSmall)" fill-rule="evenodd" clip-rule="evenodd" d="M12.5,1C18.851,1,24,6.149,24,12.5C24,18.851,18.851,24,12.5,24 C6.149,24,1,18.851,1,12.5C1,6.149,6.149,1,12.5,1z M15.949,13.166l-4.83,3.835l-1.341-1.399l4.235-3.12L9.776,9.308l1.343-1.265 l4.83,3.896l0.665,0.559L15.949,13.166z"/>
    </symbol>

    <symbol id="icon-archive" viewBox="0 0 23 29">
        <title>archive</title>
        <path fill="url(#gradientDark)" fill-rule="evenodd" clip-rule="evenodd" d="M1,28V1h10v2H9v2h2v2H9v2h2v2H9v2h2v2h2v-2h-2v-2h2V9h-2V7h2V5h-2V3h2V1h2.991 v6.009H22V28H1z M13,16H9v7h4V16z M12,21.937h-2v-2h2V21.937z M17,1h0.245L22,5.755v0.182h-5V1z"/>
    </symbol>

    <symbol id="icon-book" viewBox="0 0 29 26">
        <title>book</title>
        <path fill="url(#gradientDark)" d="M27,23.094c0,0,0,1.75,0,1.812c-4.812-3.875-11-1.812-11-1.812S21.375,19.969,27,23.094z M7.5,1.094 	c3.812,0,6.5,2.25,6.5,2.25v19.625c0,0-2.688-1.937-6.5-1.937c-3.812,0-6.5,1.937-6.5,1.937V3.094C1,3.094,3.688,1.094,7.5,1.094z M3,10.094h4v-5H3V10.094z M12,17.094H3v1h9V17.094z M12,15.094H3v1h9V15.094z M12,13.094H3v1h9V13.094z M12,11.094H3v1h9V11.094z M8,6.094h4v-1H8V6.094z M8,8.094h4v-1H8V8.094z M8,10.094h4v-1H8V10.094z M2,23.094c0,0,0,1.75,0,1.812 c4.812-3.875,11-1.812,11-1.812S7.625,19.969,2,23.094z M28,3.344v19.625c0,0-2.688-1.937-6.5-1.937S15,22.969,15,22.969V3.094 c0,0,2.688-2,6.5-2S28,3.344,28,3.344z M26,17.094h-9v1h9V17.094z M26,15.094h-9v1h9V15.094z M26,13.094h-9v1h9V13.094z M26,11.094 h-9v1h9V11.094z M26,9.094h-9v1h9V9.094z M26,7.094h-9v1h9V7.094z M26,5.094h-9v1h9V5.094z"/>
    </symbol>

    <symbol id="icon-check-circled" viewBox="0 0 16 16">
        <title>check circled</title>
        <path fill-rule="evenodd" clip-rule="evenodd" d="M8,15c-3.866,0-6.999-3.134-6.999-7c0-3.866,3.134-6.999,6.999-6.999 c3.866,0,6.999,3.134,6.999,6.999C14.999,11.866,11.866,15,8,15z M11.907,5.547L11.211,4.85c-0.128-0.128-0.336-0.128-0.464,0 	L6.571,9.026L4.584,7.025c-0.128-0.128-0.336-0.128-0.464,0L3.423,7.722c-0.128,0.128-0.128,0.336,0,0.464l2.209,2.225 	c0.003,0.003,0.004,0.007,0.007,0.011L6.117,10.9l0.115,0.116l0.001,0l0.103,0.103c0.128,0.128,0.336,0.128,0.464,0l5.107-5.107 C12.036,5.883,12.036,5.675,11.907,5.547z"/>
    </symbol>

    <symbol id="icon-check" viewBox="0 0 14 11">
        <title>check</title>
        <path fill-rule="evenodd" clip-rule="evenodd" d="M5.754,10.012c-0.185,0.185-0.484,0.185-0.669,0L4.937,9.864L4.937,9.865 	L4.779,9.706L4.083,9.01C4.081,9.007,4.082,9.003,4.079,9.001L0.892,5.79c-0.185-0.185-0.185-0.484,0-0.668l1.003-1.003 	c0.185-0.185,0.484-0.185,0.669,0L5.424,7l6.013-6.013c0.184-0.185,0.484-0.185,0.668,0l1.003,1.003 c0.184,0.184,0.184,0.484,0,0.668L5.754,10.012z"/>
    </symbol>

    <symbol id="icon-clock" viewBox="0 0 20 22">
        <title>clock</title>
        <path fill="url(#gradientDark)" fill-rule="evenodd" clip-rule="evenodd" d="M17.912,9.837c-0.927-2.568-3.187-4.54-5.998-5.167 	c0.72-1.033,1.914-1.713,3.269-1.713c2.202,0,3.986,1.785,3.986,3.987C19.169,8.087,18.682,9.11,17.912,9.837z M10.246,3.106v2.507 	c3.825,0.156,6.881,3.298,6.881,7.161c0,1.613-0.539,3.097-1.437,4.295l1.663,2.88l-1.381,0.797l-1.423-2.465 	C13.302,19.322,11.7,19.95,9.95,19.95c-1.74,0-3.335-0.62-4.577-1.65l-1.46,2.529l-1.381-0.797l1.697-2.939 	c-0.909-1.202-1.455-2.695-1.455-4.319c0-3.837,3.015-6.962,6.804-7.157V3.106C9.191,2.968,8.91,2.607,8.91,2.172 	c0-0.553,0.448-1.002,1.002-1.002c0.553,0,1.001,0.448,1.001,1.002C10.913,2.607,10.633,2.968,10.246,3.106z M4.369,12.774 c0,3.082,2.499,5.581,5.581,5.581c3.082,0,5.581-2.499,5.581-5.581c0-3.082-2.499-5.581-5.581-5.581 C6.868,7.193,4.369,9.692,4.369,12.774z M11.623,13.98H9.62c-0.369,0-0.668-0.299-0.668-0.668v-2.671 	c0-0.369,0.299-0.668,0.668-0.668s0.668,0.299,0.668,0.668v2.003h1.336c0.369,0,0.668,0.299,0.668,0.668 C12.291,13.681,11.992,13.98,11.623,13.98z M2.088,9.837c-0.77-0.727-1.257-1.75-1.257-2.893c0-2.202,1.785-3.987,3.987-3.987 c1.355,0,2.548,0.679,3.269,1.713C5.276,5.297,3.015,7.268,2.088,9.837z"/>
    </symbol>

    <symbol id="icon-dot" viewBox="0 0 8 8">
        <title>dot</title>
        <path fill="url(#gradientDark)" fill-rule="evenodd" clip-rule="evenodd" d="M4,0.891c1.717,0,3.109,1.392,3.109,3.109c0,1.717-1.392,3.109-3.109,3.109 C2.283,7.109,0.891,5.717,0.891,4C0.891,2.283,2.283,0.891,4,0.891z"/>
    </symbol>

    <symbol id="icon-heart" viewBox="0 0 20 20">
        <title>heart</title>
        <path fill="url(#gradientDark)" clip-rule="evenodd" d="M9.996,3.891C7.971-0.471,0.813-0.044,0.77,7.434 	c-0.024,4.107,2.247,6.159,4.538,7.801c2.222,1.592,4.476,2.767,4.701,3.695c0.193-0.909,2.626-2.112,4.682-3.707 c2.249-1.743,4.562-3.727,4.538-7.834C19.187-0.107,11.863-0.481,9.996,3.891z"/>
    </symbol>

    <symbol id="icon-imac" viewBox="0 0 29 26">
        <title>imac</title>
        <path fill="url(#gradientDark)" fill-rule="evenodd" clip-rule="evenodd" d="M13,21.938V23.5L10,24v1h8.937v-0.937L16,23.5v-1.562H13z M26,1H3 C1.895,1,1,1.895,1,3v14c0,1.105,0.895,2,2,2h23c1.105,0,2-0.895,2-2V3C28,1.895,27.105,1,26,1z M14.375,17.5c-0.552,0-1-0.448-1-1 c0-0.552,0.448-1,1-1s1,0.448,1,1C15.375,17.052,14.927,17.5,14.375,17.5z M26,14H3V3h23V14z"/>
    </symbol>

    <symbol id="icon-info-circled" viewBox="0 0 15 15">
        <title>info circled</title>
        <path fill-rule="evenodd" clip-rule="evenodd" d="M7.626,4.476c0,0.443,0.335,0.744,0.748,0.744s0.748-0.3,0.748-0.744 c0-0.443-0.335-0.744-0.748-0.744S7.626,4.032,7.626,4.476z M5.963,7.058c0,0.088-0.016,0.306,0.002,0.438L6.617,6.71 	c0.135-0.148,0.291-0.251,0.371-0.223c0.08,0.028,0.123,0.122,0.098,0.209l-1.08,3.577c-0.124,0.418,0.111,0.829,0.684,0.922 	c0.84,0,1.339-0.568,1.829-1.304c0-0.088,0.029-0.32,0.011-0.451l-0.653,0.786c-0.135,0.148-0.303,0.251-0.383,0.223 	c-0.074-0.026-0.117-0.108-0.102-0.19L8.48,6.665c0.09-0.456-0.155-0.871-0.675-0.925C7.259,5.741,6.453,6.322,5.963,7.058z M7.5,1 C11.09,1,14,3.91,14,7.5c0,3.59-2.91,6.5-6.5,6.5C3.91,14,1,11.09,1,7.5C1,3.91,3.91,1,7.5,1z"/>
    </symbol>

    <symbol id="icon-mouse" viewBox="0 0 22 25">
        <title>mouse</title>
        <path fill="url(#gradientDark)" fill-rule="evenodd" clip-rule="evenodd" d="M16.189,24.174h-3.902c-2.586,0-4.683-2.097-4.683-4.682v-7.024h4.732v1.561 c0,0.862,0.65,1.561,1.512,1.561h0.78c0.862,0,1.561-0.699,1.561-1.561v-1.561h4.732v7.024 C20.92,22.078,18.775,24.174,16.189,24.174z M16.189,10.907c0-0.862-0.699-1.561-1.561-1.561h0V4.712c0,0-1.024-0.049,1.512-0.049 c2.536,0,4.78,1.658,4.78,4.683c0,1.553,0,2.113,0,2.292h-4.732V10.907z M13.904,4.135c0-1.509-0.71-2.349-2.131-2.349 	c-1.504,0-2.655,1.083-3.452,3.25L8.158,5.479c-0.932,2.533-2.299,3.8-4.098,3.8c-0.726,0-1.405-0.277-2.035-0.83 	C1.394,7.896,1.08,7.301,1.08,6.665c0-0.315,0.148-0.472,0.444-0.472c0.199,0,0.405,0.251,0.618,0.753 	c0.386,0.927,1.029,1.39,1.929,1.39c0.682,0,1.239-0.22,1.674-0.661c0.434-0.441,0.928-1.289,1.481-2.543l0.357-0.792 c1.048-2.342,2.46-3.514,4.235-3.514c2.032,0,3.049,1.16,3.049,3.309h-0.014H13.904z M15.409,11.297v2.341 	c0,0.647-0.524,1.171-1.171,1.171c-0.647,0-1.171-0.524-1.171-1.171v-2.341c0-0.646,0.524-1.171,1.171-1.171 C14.885,10.127,15.409,10.651,15.409,11.297z M12.336,4.664c2.536,0,1.561,0.049,1.561,0.049v4.634 	c-0.862,0-1.561,0.699-1.561,1.561v0.732H7.604c0-0.18,0-0.74,0-2.292C7.604,6.322,9.799,4.664,12.336,4.664z"/>
    </symbol>

    <symbol id="icon-movie" viewBox="0 0 24 24">
        <title>movie</title>
        <path fill="url(#gradientDark)" fill-rule="evenodd" clip-rule="evenodd" d="M1,1v22h22V1H1z M5,21H3v-2h2V21z M5,18H3v-2h2V18z M5,15H3v-2h2V15z M5,11H3V9h2 V11z M5,8H3V6h2V8z M5,5H3V3h2V5z M17,21H7v-8h10V21z M17,11H7V3h10V11z M21,21h-2v-2h2V21z M21,18h-2v-2h2V18z M21,15h-2v-2h2V15z M21,11h-2V9h2V11z M21,8h-2V6h2V8z M21,5h-2V3h2V5z"/>
    </symbol>

    <symbol id="icon-music" viewBox="0 0 25 27">
        <title>music</title>
        <path fill="url(#gradientDark)" d="M23.948,1.038C18.586,1.144,12.374,2.073,7.012,3.826c-0.003-0.036,0.02,15.928,0.02,15.928 	c-0.968-0.219-2.063-0.091-3.212,0.431c-2.132,0.97-3.294,2.929-2.596,4.377c0.698,1.448,2.992,1.836,5.124,0.867 c1.949-1.045,2.575-1.991,2.639-3.358L9.036,8.239c4.226-1.244,8.695-1.981,12.922-2.209v12.366 	c-0.979-0.241-2.276-0.12-3.451,0.415c-2.132,0.97-3.294,2.929-2.596,4.377c0.698,1.448,2.992,1.836,5.124,0.867 c1.516-0.689,2.729-1.879,2.944-3.03C23.979,21.025,23.927,1.012,23.948,1.038z"/>
    </symbol>

    <symbol id="icon-notepad" viewBox="0 0 24 28">
        <title>notepad</title>
        <path fill="url(#gradientDark)" fill-rule="evenodd" clip-rule="evenodd" d="M21,27H5V5h7v9.125l3.542-2.687L19,14.125V5h4v20C23,26.104,22.104,27,21,27z M15.542,10.125l-2.542,2V4h5v8.125L15.542,10.125z M2,3v1c0,0.552,0.448,1,1,1h1v22H3c-1.104,0-2-0.896-2-2V3c0-1.105,0.895-2,2-2 h18c0.738,0,1.376,0.405,1.722,1H3C2.448,2,2,2.448,2,3z"/>
    </symbol>

    <symbol id="icon-padlock" viewBox="0 0 17 21">
        <title>padlock</title>
        <path fill="url(#gradientDark)" fill-rule="evenodd" clip-rule="evenodd" d="M14.29,10.086V5.951c0-2.741-3.049-4.963-5.79-4.963 	c-2.741,0-5.79,2.222-5.79,4.963v1.654h3.18V6.778c0-1.67,0.921-2.792,2.611-2.792c1.664,0,2.611,1.15,2.611,2.792v3.309H2.71 	c-0.914,0-1.654,1.568-1.654,2.482v5.79c0,0.914,0.741,1.654,1.654,1.654H14.29c0.914,0,1.654-0.741,1.654-1.654v-6.618 C15.945,10.827,15.204,10.086,14.29,10.086z M9.65,17.533h-2.3l0.566-2.207c-0.576-0.218-0.988-0.771-0.988-1.423 	c0-0.842,0.683-1.526,1.526-1.526c0.843,0,1.526,0.683,1.526,1.526c0,0.621-0.372,1.153-0.904,1.391L9.65,17.533z"/>
    </symbol>

    <symbol id="icon-plus" viewBox="0 0 25 25">
        <title>plus</title>
        <path d="M9.934,15.125h-9.07V9.992h9.07V0.852h5.133v9.141h9.07v5.133h-9.07v9.023H9.934V15.125z"/>
    </symbol>

    <symbol id="icon-slider-thumb" viewBox="0 0 15 36">
        <title>slider thumb</title>
        <path fill="url(#gradientLight)" stroke="rgb(166, 166, 166)" stroke-width="1px" filter="url(#shadowSmall)" fill-rule="evenodd" clip-rule="evenodd" d="M1,0.875h13v21l-6.5,7.25L1,21.875V0.875z"/>
    </symbol>

    <symbol id="icon-times-circled" viewBox="0 0 16 16">
        <title>times circled</title>
        <path fill-rule="evenodd" clip-rule="evenodd" d="M8,15c-3.866,0-7-3.134-7-7s3.134-7,7-7c3.866,0,7,3.134,7,7S11.866,15,8,15z 	 M11.21,5.959c0.132-0.132,0.132-0.345,0-0.476l-0.715-0.715c-0.132-0.132-0.345-0.132-0.476,0L7.994,6.793L5.968,4.767 	c-0.131-0.132-0.345-0.132-0.477,0L4.777,5.482c-0.131,0.132-0.131,0.345,0,0.476l2.025,2.025l-2.025,2.025 	c-0.131,0.132-0.131,0.345,0,0.477L5.492,11.2c0.132,0.132,0.345,0.132,0.477,0l2.025-2.025l2.025,2.025 	c0.132,0.132,0.345,0.132,0.476,0l0.715-0.715c0.132-0.132,0.132-0.345,0-0.477L9.185,7.984L11.21,5.959z"/>
    </symbol>

    <symbol id="icon-times" viewBox="0 0 12 12">
        <title>times</title>
        <path fill-rule="evenodd" clip-rule="evenodd" d="M10.824,2.962c0.198-0.197,0.198-0.517,0-0.715L9.752,1.176 	c-0.197-0.197-0.517-0.197-0.715,0L6,4.213L2.962,1.176c-0.197-0.197-0.517-0.197-0.715,0L1.175,2.248 	c-0.197,0.197-0.197,0.517,0,0.715L4.213,6L1.175,9.038c-0.197,0.197-0.197,0.517,0,0.715l1.072,1.072 c0.197,0.197,0.517,0.197,0.715,0L6,7.787l3.038,3.038c0.197,0.197,0.517,0.197,0.715,0l1.072-1.072 c0.198-0.198,0.198-0.517,0-0.715L7.787,6L10.824,2.962z"/>
    </symbol>

</svg>
